<mxfile host="app.diagrams.net" modified="2021-04-22T14:31:28.197Z" agent="5.0 (Macintosh; Intel Mac OS X 10_15_6) AppleWebKit/605.1.15 (KHTML, like Gecko) Version/14.0.3 Safari/605.1.15" etag="9teJ8yRwzCW0RbBXwQcb" version="14.5.3" type="github">
  <diagram id="FaP1FRZkeEaly-lqHHDr" name="第 1 页">
    <mxGraphModel dx="1865" dy="1715" grid="1" gridSize="10" guides="1" tooltips="1" connect="1" arrows="1" fold="1" page="1" pageScale="1" pageWidth="827" pageHeight="1169" math="0" shadow="0">
      <root>
        <mxCell id="0" />
        <mxCell id="1" parent="0" />
        <mxCell id="LLE1oKgkcayjzDM5cHJy-34" value="&lt;span style=&quot;font-size: 20px&quot;&gt;&lt;b&gt;子线程&lt;/b&gt;&lt;/span&gt;" style="rounded=1;whiteSpace=wrap;html=1;fontSize=16;align=center;verticalAlign=top;fillColor=#f9f7ed;strokeColor=none;" parent="1" vertex="1">
          <mxGeometry x="75" y="440" width="440" height="480" as="geometry" />
        </mxCell>
        <mxCell id="LLE1oKgkcayjzDM5cHJy-1" value="&lt;font style=&quot;font-size: 20px&quot;&gt;&lt;b&gt;应用程序&lt;/b&gt;&lt;/font&gt;" style="rounded=1;whiteSpace=wrap;html=1;labelBackgroundColor=none;fontSize=19;align=center;horizontal=1;verticalAlign=top;dashed=1;" parent="1" vertex="1">
          <mxGeometry x="-660" y="1240" width="865" height="850" as="geometry" />
        </mxCell>
        <mxCell id="LLE1oKgkcayjzDM5cHJy-2" value="&amp;nbsp; &amp;nbsp; 线程池" style="rounded=1;whiteSpace=wrap;html=1;labelBackgroundColor=none;fontSize=19;fontStyle=1;align=left;verticalAlign=top;fillColor=#fff2cc;strokeColor=none;" parent="1" vertex="1">
          <mxGeometry x="60" y="1170" width="700" height="250" as="geometry" />
        </mxCell>
        <mxCell id="LLE1oKgkcayjzDM5cHJy-3" value="子线程 &amp;nbsp;1" style="rounded=1;whiteSpace=wrap;html=1;labelBackgroundColor=none;fontSize=16;verticalAlign=top;fillColor=#f5f5f5;fontColor=#333333;strokeColor=none;" parent="1" vertex="1">
          <mxGeometry x="105" y="1210" width="260" height="185" as="geometry" />
        </mxCell>
        <mxCell id="LLE1oKgkcayjzDM5cHJy-4" value="&lt;span style=&quot;font-size: 20px&quot;&gt;&lt;b&gt;&lt;br&gt;&amp;nbsp; &amp;nbsp; &amp;nbsp; &amp;nbsp;主线程&lt;/b&gt;&lt;/span&gt;" style="rounded=1;whiteSpace=wrap;html=1;fontSize=16;align=left;verticalAlign=top;fillColor=#f9f7ed;strokeColor=none;" parent="1" vertex="1">
          <mxGeometry x="80" y="-10" width="680" height="260" as="geometry" />
        </mxCell>
        <mxCell id="LLE1oKgkcayjzDM5cHJy-5" style="edgeStyle=none;rounded=0;orthogonalLoop=1;jettySize=auto;html=1;entryX=0.5;entryY=0;entryDx=0;entryDy=0;fontSize=19;exitX=0.5;exitY=1;exitDx=0;exitDy=0;" parent="1" target="LLE1oKgkcayjzDM5cHJy-24" edge="1">
          <mxGeometry relative="1" as="geometry">
            <mxPoint x="255" y="1140" as="sourcePoint" />
          </mxGeometry>
        </mxCell>
        <mxCell id="LLE1oKgkcayjzDM5cHJy-6" value="&lt;span style=&quot;color: rgb(51 , 51 , 51) ; font-family: &amp;#34;pingfang sc&amp;#34; , &amp;#34;lantinghei sc&amp;#34; , &amp;#34;microsoft yahei&amp;#34; , &amp;#34;hiragino sans gb&amp;#34; , &amp;#34;microsoft sans serif&amp;#34; , &amp;#34;wenquanyi micro hei&amp;#34; , &amp;#34;helvetica&amp;#34; , sans-serif&quot;&gt;Handler&lt;/span&gt;" style="ellipse;whiteSpace=wrap;html=1;verticalAlign=top;fontSize=16;fillColor=#cce5ff;labelBackgroundColor=none;strokeColor=none;" parent="1" vertex="1">
          <mxGeometry x="95" y="720" width="400" height="170" as="geometry" />
        </mxCell>
        <mxCell id="LLE1oKgkcayjzDM5cHJy-7" value="建立连接" style="rounded=0;orthogonalLoop=1;jettySize=auto;html=1;entryX=0;entryY=0.5;entryDx=0;entryDy=0;fontSize=16;exitX=1;exitY=0.5;exitDx=0;exitDy=0;" parent="1" source="LLE1oKgkcayjzDM5cHJy-10" target="LLE1oKgkcayjzDM5cHJy-13" edge="1">
          <mxGeometry relative="1" as="geometry" />
        </mxCell>
        <mxCell id="LLE1oKgkcayjzDM5cHJy-8" value="处理请求" style="rounded=0;orthogonalLoop=1;jettySize=auto;html=1;entryX=0.5;entryY=0;entryDx=0;entryDy=0;fontSize=16;" parent="1" target="LLE1oKgkcayjzDM5cHJy-6" edge="1">
          <mxGeometry relative="1" as="geometry">
            <mxPoint x="295" y="650" as="sourcePoint" />
          </mxGeometry>
        </mxCell>
        <mxCell id="LLE1oKgkcayjzDM5cHJy-33" style="rounded=0;orthogonalLoop=1;jettySize=auto;html=1;entryX=0.5;entryY=0;entryDx=0;entryDy=0;exitX=0.5;exitY=1;exitDx=0;exitDy=0;" parent="1" source="LLE1oKgkcayjzDM5cHJy-10" target="LLE1oKgkcayjzDM5cHJy-30" edge="1">
          <mxGeometry relative="1" as="geometry" />
        </mxCell>
        <mxCell id="jzSRc6dBH1GZ7ONXzAgu-12" style="edgeStyle=orthogonalEdgeStyle;rounded=0;orthogonalLoop=1;jettySize=auto;html=1;entryX=0.136;entryY=0.229;entryDx=0;entryDy=0;entryPerimeter=0;" edge="1" parent="1" source="LLE1oKgkcayjzDM5cHJy-10" target="jzSRc6dBH1GZ7ONXzAgu-1">
          <mxGeometry relative="1" as="geometry" />
        </mxCell>
        <mxCell id="LLE1oKgkcayjzDM5cHJy-10" value="&lt;span style=&quot;font-size: 16px ; font-family: &amp;#34;pingfang sc&amp;#34; , &amp;#34;lantinghei sc&amp;#34; , &amp;#34;microsoft yahei&amp;#34; , &amp;#34;hiragino sans gb&amp;#34; , &amp;#34;microsoft sans serif&amp;#34; , &amp;#34;wenquanyi micro hei&amp;#34; , &amp;#34;helvetica&amp;#34; , sans-serif&quot;&gt;MainReactor&lt;/span&gt;" style="ellipse;html=1;verticalAlign=top;fontSize=16;fillColor=#cce5ff;whiteSpace=wrap;labelBackgroundColor=none;strokeColor=none;" parent="1" vertex="1">
          <mxGeometry x="100" y="230" width="300" height="160" as="geometry" />
        </mxCell>
        <mxCell id="LLE1oKgkcayjzDM5cHJy-11" value="select" style="rounded=0;whiteSpace=wrap;html=1;fontSize=16;fillColor=#ffcc99;strokeColor=none;" parent="1" vertex="1">
          <mxGeometry x="140" y="285" width="100" height="50" as="geometry" />
        </mxCell>
        <mxCell id="LLE1oKgkcayjzDM5cHJy-12" value="dispatch" style="rounded=0;whiteSpace=wrap;html=1;fontSize=16;fillColor=#ffcc99;strokeColor=none;" parent="1" vertex="1">
          <mxGeometry x="262.5" y="285" width="100" height="50" as="geometry" />
        </mxCell>
        <mxCell id="LLE1oKgkcayjzDM5cHJy-13" value="&lt;span style=&quot;color: rgb(51, 51, 51); font-family: &amp;quot;pingfang sc&amp;quot;, &amp;quot;lantinghei sc&amp;quot;, &amp;quot;microsoft yahei&amp;quot;, &amp;quot;hiragino sans gb&amp;quot;, &amp;quot;microsoft sans serif&amp;quot;, &amp;quot;wenquanyi micro hei&amp;quot;, helvetica, sans-serif;&quot;&gt;Acceptor&lt;/span&gt;" style="ellipse;whiteSpace=wrap;html=1;verticalAlign=top;fontSize=16;fillColor=#cce5ff;labelBackgroundColor=none;strokeColor=none;" parent="1" vertex="1">
          <mxGeometry x="510" y="240" width="220" height="140" as="geometry" />
        </mxCell>
        <mxCell id="LLE1oKgkcayjzDM5cHJy-14" value="accept" style="rounded=0;whiteSpace=wrap;html=1;fontSize=16;fillColor=#ffcc99;strokeColor=none;" parent="1" vertex="1">
          <mxGeometry x="565" y="285" width="100" height="50" as="geometry" />
        </mxCell>
        <mxCell id="LLE1oKgkcayjzDM5cHJy-15" value="send" style="rounded=0;whiteSpace=wrap;html=1;fontSize=16;fillColor=#ffcc99;strokeColor=none;" parent="1" vertex="1">
          <mxGeometry x="367.5" y="785" width="100" height="50" as="geometry" />
        </mxCell>
        <mxCell id="LLE1oKgkcayjzDM5cHJy-36" style="edgeStyle=none;rounded=0;orthogonalLoop=1;jettySize=auto;html=1;entryX=0;entryY=0.5;entryDx=0;entryDy=0;" parent="1" source="LLE1oKgkcayjzDM5cHJy-16" target="LLE1oKgkcayjzDM5cHJy-35" edge="1">
          <mxGeometry relative="1" as="geometry" />
        </mxCell>
        <mxCell id="LLE1oKgkcayjzDM5cHJy-16" value="read" style="rounded=0;whiteSpace=wrap;html=1;fontSize=16;fillColor=#ffcc99;strokeColor=none;" parent="1" vertex="1">
          <mxGeometry x="122.5" y="785" width="100" height="50" as="geometry" />
        </mxCell>
        <mxCell id="LLE1oKgkcayjzDM5cHJy-17" value="请求" style="edgeStyle=none;rounded=0;orthogonalLoop=1;jettySize=auto;html=1;fontSize=16;entryX=0;entryY=0.5;entryDx=0;entryDy=0;" parent="1" source="LLE1oKgkcayjzDM5cHJy-18" target="LLE1oKgkcayjzDM5cHJy-10" edge="1">
          <mxGeometry relative="1" as="geometry" />
        </mxCell>
        <mxCell id="LLE1oKgkcayjzDM5cHJy-18" value="Client 1" style="ellipse;whiteSpace=wrap;html=1;fontSize=16;fillColor=#ffcccc;strokeColor=none;" parent="1" vertex="1">
          <mxGeometry x="-240" y="220" width="120" height="80" as="geometry" />
        </mxCell>
        <mxCell id="LLE1oKgkcayjzDM5cHJy-19" value="请求" style="rounded=0;orthogonalLoop=1;jettySize=auto;html=1;entryX=0;entryY=0.5;entryDx=0;entryDy=0;fontSize=16;" parent="1" source="LLE1oKgkcayjzDM5cHJy-20" target="LLE1oKgkcayjzDM5cHJy-10" edge="1">
          <mxGeometry relative="1" as="geometry" />
        </mxCell>
        <mxCell id="LLE1oKgkcayjzDM5cHJy-20" value="Client 1" style="ellipse;whiteSpace=wrap;html=1;fontSize=16;fillColor=#ffcccc;strokeColor=none;" parent="1" vertex="1">
          <mxGeometry x="-240" y="420" width="120" height="80" as="geometry" />
        </mxCell>
        <mxCell id="LLE1oKgkcayjzDM5cHJy-24" value="&lt;span style=&quot;color: rgb(51, 51, 51); font-family: &amp;quot;pingfang sc&amp;quot;, &amp;quot;lantinghei sc&amp;quot;, &amp;quot;microsoft yahei&amp;quot;, &amp;quot;hiragino sans gb&amp;quot;, &amp;quot;microsoft sans serif&amp;quot;, &amp;quot;wenquanyi micro hei&amp;quot;, helvetica, sans-serif;&quot;&gt;Processor&lt;/span&gt;" style="ellipse;whiteSpace=wrap;html=1;verticalAlign=top;fontSize=16;fillColor=#cce5ff;labelBackgroundColor=none;strokeColor=none;" parent="1" vertex="1">
          <mxGeometry x="125" y="1245" width="220" height="140" as="geometry" />
        </mxCell>
        <mxCell id="LLE1oKgkcayjzDM5cHJy-25" value="业务处理" style="rounded=0;whiteSpace=wrap;html=1;fontSize=16;fillColor=#ffcc99;strokeColor=none;" parent="1" vertex="1">
          <mxGeometry x="185" y="1295" width="100" height="50" as="geometry" />
        </mxCell>
        <mxCell id="LLE1oKgkcayjzDM5cHJy-26" value="子线程 &amp;nbsp;2" style="rounded=1;whiteSpace=wrap;html=1;labelBackgroundColor=none;fontSize=16;verticalAlign=top;fillColor=#f5f5f5;fontColor=#333333;strokeColor=none;" parent="1" vertex="1">
          <mxGeometry x="435" y="1210" width="260" height="185" as="geometry" />
        </mxCell>
        <mxCell id="LLE1oKgkcayjzDM5cHJy-27" value="&lt;span style=&quot;color: rgb(51, 51, 51); font-family: &amp;quot;pingfang sc&amp;quot;, &amp;quot;lantinghei sc&amp;quot;, &amp;quot;microsoft yahei&amp;quot;, &amp;quot;hiragino sans gb&amp;quot;, &amp;quot;microsoft sans serif&amp;quot;, &amp;quot;wenquanyi micro hei&amp;quot;, helvetica, sans-serif;&quot;&gt;Processor&lt;/span&gt;" style="ellipse;whiteSpace=wrap;html=1;verticalAlign=top;fontSize=16;fillColor=#cce5ff;labelBackgroundColor=none;strokeColor=none;" parent="1" vertex="1">
          <mxGeometry x="455" y="1245" width="220" height="140" as="geometry" />
        </mxCell>
        <mxCell id="LLE1oKgkcayjzDM5cHJy-28" value="业务处理" style="rounded=0;whiteSpace=wrap;html=1;fontSize=16;fillColor=#ffcc99;strokeColor=none;" parent="1" vertex="1">
          <mxGeometry x="515" y="1295" width="100" height="50" as="geometry" />
        </mxCell>
        <mxCell id="LLE1oKgkcayjzDM5cHJy-29" style="edgeStyle=none;rounded=0;orthogonalLoop=1;jettySize=auto;html=1;entryX=0.5;entryY=0;entryDx=0;entryDy=0;fontSize=19;exitX=0.5;exitY=1;exitDx=0;exitDy=0;" parent="1" target="LLE1oKgkcayjzDM5cHJy-27" edge="1">
          <mxGeometry relative="1" as="geometry">
            <mxPoint x="544" y="1140" as="sourcePoint" />
          </mxGeometry>
        </mxCell>
        <mxCell id="LLE1oKgkcayjzDM5cHJy-30" value="&lt;span style=&quot;font-size: 16px ; font-family: &amp;#34;pingfang sc&amp;#34; , &amp;#34;lantinghei sc&amp;#34; , &amp;#34;microsoft yahei&amp;#34; , &amp;#34;hiragino sans gb&amp;#34; , &amp;#34;microsoft sans serif&amp;#34; , &amp;#34;wenquanyi micro hei&amp;#34; , &amp;#34;helvetica&amp;#34; , sans-serif&quot;&gt;SubReactor&lt;/span&gt;" style="ellipse;html=1;verticalAlign=top;fontSize=16;fillColor=#cce5ff;whiteSpace=wrap;labelBackgroundColor=none;strokeColor=none;" parent="1" vertex="1">
          <mxGeometry x="145" y="490" width="300" height="160" as="geometry" />
        </mxCell>
        <mxCell id="LLE1oKgkcayjzDM5cHJy-31" value="select" style="rounded=0;whiteSpace=wrap;html=1;fontSize=16;fillColor=#ffcc99;strokeColor=none;" parent="1" vertex="1">
          <mxGeometry x="185" y="545" width="100" height="50" as="geometry" />
        </mxCell>
        <mxCell id="LLE1oKgkcayjzDM5cHJy-32" value="dispatch" style="rounded=0;whiteSpace=wrap;html=1;fontSize=16;fillColor=#ffcc99;strokeColor=none;" parent="1" vertex="1">
          <mxGeometry x="307.5" y="545" width="100" height="50" as="geometry" />
        </mxCell>
        <mxCell id="LLE1oKgkcayjzDM5cHJy-37" style="edgeStyle=none;rounded=0;orthogonalLoop=1;jettySize=auto;html=1;entryX=0;entryY=0.5;entryDx=0;entryDy=0;" parent="1" source="LLE1oKgkcayjzDM5cHJy-35" target="LLE1oKgkcayjzDM5cHJy-15" edge="1">
          <mxGeometry relative="1" as="geometry" />
        </mxCell>
        <mxCell id="LLE1oKgkcayjzDM5cHJy-35" value="业务处理" style="rounded=0;whiteSpace=wrap;html=1;fontSize=16;fillColor=#ffcc99;strokeColor=none;" parent="1" vertex="1">
          <mxGeometry x="242.5" y="785" width="100" height="50" as="geometry" />
        </mxCell>
        <mxCell id="jzSRc6dBH1GZ7ONXzAgu-1" value="&lt;span style=&quot;font-size: 20px&quot;&gt;&lt;b&gt;子线程&lt;/b&gt;&lt;/span&gt;" style="rounded=1;whiteSpace=wrap;html=1;fontSize=16;align=center;verticalAlign=top;fillColor=#f9f7ed;strokeColor=none;" vertex="1" parent="1">
          <mxGeometry x="540" y="440" width="440" height="480" as="geometry" />
        </mxCell>
        <mxCell id="jzSRc6dBH1GZ7ONXzAgu-2" value="&lt;span style=&quot;color: rgb(51 , 51 , 51) ; font-family: &amp;#34;pingfang sc&amp;#34; , &amp;#34;lantinghei sc&amp;#34; , &amp;#34;microsoft yahei&amp;#34; , &amp;#34;hiragino sans gb&amp;#34; , &amp;#34;microsoft sans serif&amp;#34; , &amp;#34;wenquanyi micro hei&amp;#34; , &amp;#34;helvetica&amp;#34; , sans-serif&quot;&gt;Handler&lt;/span&gt;" style="ellipse;whiteSpace=wrap;html=1;verticalAlign=top;fontSize=16;fillColor=#cce5ff;labelBackgroundColor=none;strokeColor=none;" vertex="1" parent="1">
          <mxGeometry x="560" y="720" width="400" height="170" as="geometry" />
        </mxCell>
        <mxCell id="jzSRc6dBH1GZ7ONXzAgu-3" value="处理请求" style="rounded=0;orthogonalLoop=1;jettySize=auto;html=1;entryX=0.5;entryY=0;entryDx=0;entryDy=0;fontSize=16;" edge="1" parent="1" target="jzSRc6dBH1GZ7ONXzAgu-2">
          <mxGeometry relative="1" as="geometry">
            <mxPoint x="760" y="650" as="sourcePoint" />
          </mxGeometry>
        </mxCell>
        <mxCell id="jzSRc6dBH1GZ7ONXzAgu-4" value="send" style="rounded=0;whiteSpace=wrap;html=1;fontSize=16;fillColor=#ffcc99;strokeColor=none;" vertex="1" parent="1">
          <mxGeometry x="832.5" y="785" width="100" height="50" as="geometry" />
        </mxCell>
        <mxCell id="jzSRc6dBH1GZ7ONXzAgu-5" style="edgeStyle=none;rounded=0;orthogonalLoop=1;jettySize=auto;html=1;entryX=0;entryY=0.5;entryDx=0;entryDy=0;" edge="1" parent="1" source="jzSRc6dBH1GZ7ONXzAgu-6" target="jzSRc6dBH1GZ7ONXzAgu-11">
          <mxGeometry relative="1" as="geometry" />
        </mxCell>
        <mxCell id="jzSRc6dBH1GZ7ONXzAgu-6" value="read" style="rounded=0;whiteSpace=wrap;html=1;fontSize=16;fillColor=#ffcc99;strokeColor=none;" vertex="1" parent="1">
          <mxGeometry x="587.5" y="785" width="100" height="50" as="geometry" />
        </mxCell>
        <mxCell id="jzSRc6dBH1GZ7ONXzAgu-7" value="&lt;span style=&quot;font-size: 16px ; font-family: &amp;#34;pingfang sc&amp;#34; , &amp;#34;lantinghei sc&amp;#34; , &amp;#34;microsoft yahei&amp;#34; , &amp;#34;hiragino sans gb&amp;#34; , &amp;#34;microsoft sans serif&amp;#34; , &amp;#34;wenquanyi micro hei&amp;#34; , &amp;#34;helvetica&amp;#34; , sans-serif&quot;&gt;SubReactor&lt;/span&gt;" style="ellipse;html=1;verticalAlign=top;fontSize=16;fillColor=#cce5ff;whiteSpace=wrap;labelBackgroundColor=none;strokeColor=none;" vertex="1" parent="1">
          <mxGeometry x="610" y="490" width="300" height="160" as="geometry" />
        </mxCell>
        <mxCell id="jzSRc6dBH1GZ7ONXzAgu-8" value="select" style="rounded=0;whiteSpace=wrap;html=1;fontSize=16;fillColor=#ffcc99;strokeColor=none;" vertex="1" parent="1">
          <mxGeometry x="650" y="545" width="100" height="50" as="geometry" />
        </mxCell>
        <mxCell id="jzSRc6dBH1GZ7ONXzAgu-9" value="dispatch" style="rounded=0;whiteSpace=wrap;html=1;fontSize=16;fillColor=#ffcc99;strokeColor=none;" vertex="1" parent="1">
          <mxGeometry x="772.5" y="545" width="100" height="50" as="geometry" />
        </mxCell>
        <mxCell id="jzSRc6dBH1GZ7ONXzAgu-10" style="edgeStyle=none;rounded=0;orthogonalLoop=1;jettySize=auto;html=1;entryX=0;entryY=0.5;entryDx=0;entryDy=0;" edge="1" parent="1" source="jzSRc6dBH1GZ7ONXzAgu-11" target="jzSRc6dBH1GZ7ONXzAgu-4">
          <mxGeometry relative="1" as="geometry" />
        </mxCell>
        <mxCell id="jzSRc6dBH1GZ7ONXzAgu-11" value="业务处理" style="rounded=0;whiteSpace=wrap;html=1;fontSize=16;fillColor=#ffcc99;strokeColor=none;" vertex="1" parent="1">
          <mxGeometry x="707.5" y="785" width="100" height="50" as="geometry" />
        </mxCell>
      </root>
    </mxGraphModel>
  </diagram>
</mxfile>
